<svg version="1.1" id="Layer_1" xmlns="http://www.w3.org/2000/svg" xmlns:xlink="http://www.w3.org/1999/xlink" x="0px" y="0px"
	 width="100%" viewBox="0 0 900 600" enable-background="new 0 0 900 600" xml:space="preserve">
<path fill="#000000" opacity="1.000000" stroke="none" 
	d="
M497.000000,601.000000 
	C331.333344,601.000000 166.166672,601.000000 1.000000,601.000000 
	C1.000000,401.000000 1.000000,201.000000 1.000000,1.000000 
	C301.000000,1.000000 601.000000,1.000000 901.000000,1.000000 
	C901.000000,201.000000 901.000000,401.000000 901.000000,601.000000 
	C766.500000,601.000000 632.000000,601.000000 497.000000,601.000000 
M662.172241,341.032410 
	C661.115295,341.079315 660.058289,341.126251 658.337341,341.025238 
	C657.889526,341.074402 657.441772,341.123596 656.184204,341.034424 
	C654.587830,341.034424 652.991455,341.034424 651.395081,341.034424 
	C651.348450,340.635651 651.301758,340.236877 651.255127,339.838135 
	C653.461975,339.394226 655.668823,338.950348 658.998047,338.280701 
	C657.878479,336.239532 656.958984,334.563171 656.007385,332.088745 
	C654.016785,327.312347 652.113708,322.497192 650.017700,317.767517 
	C645.396240,307.339142 640.709656,296.939270 635.990051,286.554871 
	C630.355408,274.157288 624.580627,261.822906 619.011353,249.396240 
	C613.887573,237.963531 608.942444,226.450607 603.948608,214.959961 
	C602.675415,212.030243 601.681213,208.969299 600.267456,206.112869 
	C597.948914,201.428406 595.392090,196.861954 592.862061,192.107117 
	C587.242737,191.902344 585.877441,193.458344 583.986084,199.704681 
	C582.206726,205.581360 579.742920,211.276840 577.244446,216.902878 
	C574.370667,223.373993 570.991577,229.619736 568.080872,236.075592 
	C564.572388,243.857391 561.280334,251.738205 557.977600,259.610992 
	C554.272827,268.442108 550.747070,277.349091 546.972168,286.149658 
	C545.085510,290.548065 542.742188,294.748291 540.739136,299.099701 
	C537.442810,306.260590 534.200806,313.447662 531.038879,320.668793 
	C528.484863,326.501801 525.984741,332.362610 523.643250,338.283264 
	C521.687744,343.227844 519.996887,348.277130 517.939453,353.969971 
	C529.226135,353.969971 538.869995,354.088074 548.505310,353.853790 
	C550.111450,353.814758 552.482239,352.630920 553.121399,351.309448 
	C555.351807,346.698059 556.977478,341.794189 559.316284,336.255280 
	C579.829468,336.185822 600.342590,336.116364 621.158325,336.728882 
	C622.103760,339.038910 623.135437,341.317963 623.979309,343.664490 
	C627.204712,352.633240 629.352844,354.216461 638.692810,353.774292 
	C639.970947,352.317902 641.249084,350.861542 642.752808,349.148071 
	C642.905029,350.596252 643.033752,351.821075 643.012634,353.638519 
	C642.987671,354.044739 642.962769,354.450989 642.254944,355.267426 
	C641.687744,364.396423 648.846619,370.298431 653.968628,370.945831 
	C663.612183,372.164825 671.889099,367.630829 673.988525,359.981079 
	C675.964966,352.779266 670.885559,344.127655 662.172241,341.032410 
M717.930359,364.059113 
	C717.953247,318.414917 717.976746,272.770721 717.995178,227.126511 
	C717.995605,226.128799 718.143188,225.058517 717.825928,224.162430 
	C717.654602,223.678604 716.642212,223.492584 715.079956,223.032639 
	C702.824585,223.032639 690.569153,223.032639 677.990784,223.032639 
	C677.990784,225.650787 677.990906,227.625275 677.990784,229.599747 
	C677.988464,270.072754 678.222290,310.548218 677.799805,351.016846 
	C677.706604,359.946472 678.014648,369.940308 666.249939,373.929993 
	C661.248596,375.626007 650.604919,374.723175 646.765503,370.476379 
	C643.367310,366.717651 640.105957,362.823151 636.522949,359.250610 
	C635.371338,358.102356 633.012390,356.820831 631.854553,357.270599 
	C628.125977,358.718872 624.613708,360.805237 621.178284,362.907349 
	C616.480347,365.781982 612.044983,369.095947 607.286682,371.859192 
	C601.176758,375.407257 601.246216,375.171814 604.266174,381.151855 
	C611.288147,395.056427 623.088379,404.090027 637.127502,408.584808 
	C651.154602,413.075745 666.313843,412.320618 680.833557,409.346252 
	C686.495422,408.186432 692.271423,405.280090 696.845520,401.700134 
	C702.507202,397.269135 708.160767,391.978455 711.622009,385.824219 
	C715.082886,379.670776 715.834717,371.993744 717.930359,364.059113 
M294.152069,336.721863 
	C296.111725,341.092224 297.890167,345.557037 300.099274,349.797424 
	C301.415405,352.323669 303.003113,354.364563 306.835358,354.165314 
	C315.804047,353.698883 324.814301,354.087250 333.803894,353.921936 
	C335.628876,353.888397 337.437012,352.941650 340.174835,352.149017 
	C338.495087,350.617157 337.561646,350.147400 337.232544,349.408478 
	C332.332825,338.408203 327.492554,327.381195 322.680878,316.341980 
	C318.729614,307.276733 314.970215,298.125427 310.881714,289.123108 
	C305.388977,277.028748 299.582245,265.077118 294.072876,252.990112 
	C291.802155,248.008392 290.136475,242.751450 287.878326,237.763306 
	C281.675262,224.061020 275.237396,210.464966 269.042145,196.759216 
	C267.290558,192.884216 262.059143,190.242325 260.210114,192.823685 
	C258.793640,194.801178 257.965668,197.234543 257.061646,199.538025 
	C254.803040,205.293045 252.923492,211.213104 250.381943,216.836487 
	C247.542023,223.120071 243.900391,229.040497 241.042542,235.317001 
	C237.374756,243.372299 234.224319,251.661438 230.693832,259.781525 
	C227.577026,266.950165 224.165970,273.990601 221.031616,281.151917 
	C218.430405,287.095123 216.028122,293.125824 213.564468,299.128723 
	C210.352982,306.953735 207.297943,314.846130 203.926880,322.601410 
	C201.576797,328.007874 198.575974,333.135101 196.298203,338.568359 
	C194.313690,343.302063 192.934570,348.289551 190.999527,354.018860 
	C202.736115,354.018860 212.867386,354.061554 222.996964,353.949768 
	C223.960693,353.939148 225.457001,353.187042 225.784134,352.397308 
	C228.007462,347.029846 229.983261,341.559875 232.966248,336.016449 
	C253.262680,336.026062 273.559113,336.035675 294.152069,336.721863 
M146.743301,297.331024 
	C146.743301,304.453705 146.743301,311.576385 146.743301,318.655762 
	C143.977798,319.152679 141.267960,319.224182 138.888336,320.147064 
	C132.436035,322.649567 125.876953,324.484192 118.926453,323.943085 
	C114.271881,323.580688 109.622482,322.867981 105.038361,321.967804 
	C100.808052,321.137115 96.251427,320.620056 92.558540,318.629272 
	C74.595543,308.945709 67.316292,292.652039 66.141357,273.178497 
	C65.876595,268.790314 66.777199,264.114777 68.142975,259.895813 
	C70.221405,253.475418 72.014954,246.443481 76.005104,241.273117 
	C83.517464,231.538742 93.450455,224.309937 106.371849,223.434113 
	C112.894241,222.992020 120.033501,222.341278 125.934265,224.458847 
	C132.879074,226.951080 138.712234,232.460678 145.207642,236.361832 
	C146.339264,237.041519 148.956223,236.876144 149.877426,236.017609 
	C156.561493,229.788254 163.106964,223.394272 169.366837,216.742325 
	C170.332565,215.716125 170.443909,212.386841 169.539703,211.332733 
	C160.858261,201.212265 148.955048,196.562668 136.559418,193.137192 
	C132.662384,192.060257 128.342255,192.621674 124.314255,191.890671 
	C113.590134,189.944412 102.893402,190.529510 92.474861,193.024643 
	C84.620384,194.905762 76.782059,197.608856 69.582626,201.230453 
	C63.885578,204.096313 58.750122,208.482635 54.134541,212.982758 
	C49.338604,217.658783 44.610504,222.810120 41.408592,228.612198 
	C37.443638,235.796967 33.725632,243.633835 32.362926,251.609619 
	C30.620754,261.806427 31.246367,272.421082 31.016867,282.859253 
	C30.789345,293.207581 34.208527,302.864746 38.328957,311.995117 
	C42.811016,321.926788 50.564991,329.762207 58.723007,336.911194 
	C73.499985,349.860474 91.782585,353.886017 110.528679,355.800568 
	C117.436951,356.506134 124.539474,355.535828 131.662613,354.486908 
	C142.198502,352.935547 152.452209,351.006195 162.160278,346.880524 
	C167.413330,344.648071 172.096817,341.075470 177.768372,337.728729 
	C178.181503,336.216766 178.948898,334.706116 178.954361,333.192688 
	C179.030334,312.103485 179.008575,291.013885 178.983002,269.924438 
	C178.981491,268.670319 178.745682,267.416473 178.620346,266.176758 
	C156.816376,266.176758 135.407684,266.176758 113.339287,266.035339 
	C112.894531,266.082794 112.449768,266.130249 111.184723,266.036926 
	C110.142410,267.004791 108.219719,267.950653 108.194878,268.944000 
	C107.963318,278.200775 108.057793,287.465668 108.057793,296.838470 
	C121.077614,296.838470 133.542175,296.838470 146.743301,297.331024 
M347.452972,192.082703 
	C338.995911,192.082703 330.538849,192.082703 321.609467,192.082703 
	C322.190765,195.307556 322.329803,198.156403 323.241272,200.731842 
	C325.626495,207.471237 328.444336,214.056229 330.909821,220.768845 
	C333.256744,227.158661 335.262207,233.674149 337.622864,240.058578 
	C340.971222,249.114197 344.564941,258.078979 347.934204,267.127075 
	C349.210938,270.555695 350.007385,274.162994 351.280579,277.593109 
	C354.468658,286.182129 357.911957,294.677155 361.046539,303.285034 
	C363.562561,310.194305 365.576416,317.289124 368.171509,324.166321 
	C371.889709,334.019867 375.934326,343.750244 379.960419,353.835938 
	C381.803131,353.835938 384.100342,353.835938 386.513916,353.835938 
	C401.412689,322.756439 416.294403,291.712585 430.831665,261.387268 
	C433.608673,267.589294 436.754608,274.789978 440.044708,281.924164 
	C445.636932,294.050323 451.388184,306.103363 456.944733,318.245636 
	C462.060791,329.425293 466.907806,340.729675 472.174438,351.836334 
	C472.747009,353.043732 475.293884,353.776886 476.962494,353.847839 
	C478.170319,353.899200 480.134735,352.770874 480.572968,351.687653 
	C484.194397,342.736542 487.680389,333.723816 490.925903,324.629303 
	C494.127747,315.657257 496.975952,306.559418 500.027588,297.533081 
	C502.088135,291.438263 504.146332,285.340302 506.357330,279.299255 
	C510.651184,267.567078 515.144653,255.907425 519.379211,244.154251 
	C522.841370,234.545135 525.926941,224.800034 529.414429,215.200546 
	C531.335754,209.911987 533.894836,204.857422 535.887573,199.591843 
	C538.044983,193.891205 537.359192,192.170792 533.075256,192.103394 
	C523.912231,191.959229 514.744568,192.010605 505.580872,192.134247 
	C504.452728,192.149460 502.662140,192.821457 502.326721,193.652512 
	C500.366241,198.509949 498.796997,203.523346 497.003662,208.450607 
	C493.392303,218.373199 489.544434,228.213501 486.121277,238.199875 
	C482.015472,250.177658 478.231873,262.266296 474.363281,274.324402 
	C473.879852,275.831177 473.728760,277.444550 473.279602,279.747284 
	C470.827240,273.265472 468.935120,267.683868 466.625458,262.280731 
	C461.834961,251.074081 456.980957,239.888916 451.857697,228.831757 
	C446.627808,217.544540 441.125122,206.380356 435.515869,195.276428 
	C434.787445,193.834412 432.829163,192.511673 431.221008,192.171570 
	C429.884827,191.888992 427.370239,192.707352 426.842255,193.767456 
	C421.714233,204.064178 416.839905,214.489243 412.012512,224.932831 
	C409.819092,229.678040 408.416168,234.862640 405.739899,239.295639 
	C399.639618,249.400284 395.132568,260.085907 391.933411,271.405853 
	C391.214203,273.950745 389.802307,276.299896 388.512756,279.177765 
	C387.220337,274.437469 386.127655,270.245911 384.929779,266.084656 
	C383.563385,261.337830 382.296844,256.548767 380.635223,251.903870 
	C378.533112,246.027557 376.015625,240.301331 373.787567,234.468262 
	C370.870544,226.831268 368.051575,219.156738 365.209259,211.491364 
	C363.449463,206.745438 361.313629,202.087036 360.118958,197.200500 
	C359.221832,193.530930 357.942627,191.555588 353.926147,192.054031 
	C352.121185,192.278015 350.264587,192.085983 347.452972,192.082703 
M867.045410,379.682709 
	C868.610718,372.582123 870.728699,365.543854 871.539124,358.358124 
	C872.045471,353.869019 870.247803,349.170044 870.074097,344.543091 
	C869.777344,336.637817 866.288513,330.036163 861.843811,323.990875 
	C854.482178,313.978363 843.917908,307.774567 833.194214,302.157440 
	C824.966370,297.847687 815.997864,294.962738 807.711548,290.750092 
	C802.118042,287.906372 796.630432,284.413025 792.010986,280.205170 
	C786.098145,274.818970 786.705444,266.343140 792.475098,260.796906 
	C797.024841,256.423309 802.361938,256.192871 808.469116,256.736816 
	C818.518127,257.631805 823.564087,263.963928 828.211914,272.307373 
	C829.942383,271.742401 832.156250,271.471680 833.848022,270.386810 
	C840.146423,266.347687 846.190186,261.911804 852.484802,257.866364 
	C861.093323,252.333893 860.926636,252.555664 856.004883,243.754150 
	C851.428833,235.570969 843.898438,230.621155 836.292419,226.372879 
	C830.684265,223.240433 823.744385,222.075989 817.237793,221.047714 
	C799.175903,218.193268 782.054382,220.308151 766.798340,231.643784 
	C755.380066,240.127823 749.876038,252.031723 748.336853,265.387146 
	C747.430176,273.254333 748.932739,281.642914 750.655151,289.511688 
	C753.169128,300.996033 760.132935,309.472931 769.722290,316.679260 
	C779.066406,323.701233 789.573792,327.982269 799.849731,332.844604 
	C808.190369,336.791199 816.827087,339.960541 824.357483,345.557831 
	C831.593567,350.936279 832.034790,364.192505 825.195679,369.334839 
	C816.659607,375.753113 797.221191,377.842133 788.658203,371.550323 
	C782.635620,367.125153 777.876343,360.971100 772.602661,355.540771 
	C770.416809,353.289948 768.316406,351.810089 765.088684,353.949066 
	C762.224731,355.846985 759.059753,357.285004 756.070862,359.001282 
	C750.465515,362.220093 744.737122,365.266907 739.409119,368.897644 
	C738.018982,369.844910 736.752380,373.334412 737.426453,374.535065 
	C740.136658,379.362976 743.079285,384.294250 746.933899,388.203491 
	C760.305664,401.764740 776.474609,410.126556 795.727417,410.861420 
	C812.252075,411.492126 829.044128,412.420837 844.288269,403.913086 
	C854.151245,398.408569 862.898499,391.657471 867.045410,379.682709 
z"/>
<path fill="#2296F2" opacity="1.000000" stroke="none" 
	d="
M347.942200,192.082703 
	C350.264587,192.085983 352.121185,192.278015 353.926147,192.054031 
	C357.942627,191.555588 359.221832,193.530930 360.118958,197.200500 
	C361.313629,202.087036 363.449463,206.745438 365.209259,211.491364 
	C368.051575,219.156738 370.870544,226.831268 373.787567,234.468262 
	C376.015625,240.301331 378.533112,246.027557 380.635223,251.903870 
	C382.296844,256.548767 383.563385,261.337830 384.929779,266.084656 
	C386.127655,270.245911 387.220337,274.437469 388.512756,279.177765 
	C389.802307,276.299896 391.214203,273.950745 391.933411,271.405853 
	C395.132568,260.085907 399.639618,249.400284 405.739899,239.295639 
	C408.416168,234.862640 409.819092,229.678040 412.012512,224.932831 
	C416.839905,214.489243 421.714233,204.064178 426.842255,193.767456 
	C427.370239,192.707352 429.884827,191.888992 431.221008,192.171570 
	C432.829163,192.511673 434.787445,193.834412 435.515869,195.276428 
	C441.125122,206.380356 446.627808,217.544540 451.857697,228.831757 
	C456.980957,239.888916 461.834961,251.074081 466.625458,262.280731 
	C468.935120,267.683868 470.827240,273.265472 473.279602,279.747284 
	C473.728760,277.444550 473.879852,275.831177 474.363281,274.324402 
	C478.231873,262.266296 482.015472,250.177658 486.121277,238.199875 
	C489.544434,228.213501 493.392303,218.373199 497.003662,208.450607 
	C498.796997,203.523346 500.366241,198.509949 502.326721,193.652512 
	C502.662140,192.821457 504.452728,192.149460 505.580872,192.134247 
	C514.744568,192.010605 523.912231,191.959229 533.075256,192.103394 
	C537.359192,192.170792 538.044983,193.891205 535.887573,199.591843 
	C533.894836,204.857422 531.335754,209.911987 529.414429,215.200546 
	C525.926941,224.800034 522.841370,234.545135 519.379211,244.154251 
	C515.144653,255.907425 510.651184,267.567078 506.357330,279.299255 
	C504.146332,285.340302 502.088135,291.438263 500.027588,297.533081 
	C496.975952,306.559418 494.127747,315.657257 490.925903,324.629303 
	C487.680389,333.723816 484.194397,342.736542 480.572968,351.687653 
	C480.134735,352.770874 478.170319,353.899200 476.962494,353.847839 
	C475.293884,353.776886 472.747009,353.043732 472.174438,351.836334 
	C466.907806,340.729675 462.060791,329.425293 456.944733,318.245636 
	C451.388184,306.103363 445.636932,294.050323 440.044708,281.924164 
	C436.754608,274.789978 433.608673,267.589294 430.831665,261.387268 
	C416.294403,291.712585 401.412689,322.756439 386.513916,353.835938 
	C384.100342,353.835938 381.803131,353.835938 379.960419,353.835938 
	C375.934326,343.750244 371.889709,334.019867 368.171509,324.166321 
	C365.576416,317.289124 363.562561,310.194305 361.046539,303.285034 
	C357.911957,294.677155 354.468658,286.182129 351.280579,277.593109 
	C350.007385,274.162994 349.210938,270.555695 347.934204,267.127075 
	C344.564941,258.078979 340.971222,249.114197 337.622864,240.058578 
	C335.262207,233.674149 333.256744,227.158661 330.909821,220.768845 
	C328.444336,214.056229 325.626495,207.471237 323.241272,200.731842 
	C322.329803,198.156403 322.190765,195.307556 321.609467,192.082703 
	C330.538849,192.082703 338.995911,192.082703 347.942200,192.082703 
z"/>
<path fill="#25D266" opacity="1.000000" stroke="none" 
	d="
M867.007812,380.076538 
	C862.898499,391.657471 854.151245,398.408569 844.288269,403.913086 
	C829.044128,412.420837 812.252075,411.492126 795.727417,410.861420 
	C776.474609,410.126556 760.305664,401.764740 746.933899,388.203491 
	C743.079285,384.294250 740.136658,379.362976 737.426453,374.535065 
	C736.752380,373.334412 738.018982,369.844910 739.409119,368.897644 
	C744.737122,365.266907 750.465515,362.220093 756.070862,359.001282 
	C759.059753,357.285004 762.224731,355.846985 765.088684,353.949066 
	C768.316406,351.810089 770.416809,353.289948 772.602661,355.540771 
	C777.876343,360.971100 782.635620,367.125153 788.658203,371.550323 
	C797.221191,377.842133 816.659607,375.753113 825.195679,369.334839 
	C832.034790,364.192505 831.593567,350.936279 824.357483,345.557831 
	C816.827087,339.960541 808.190369,336.791199 799.849731,332.844604 
	C789.573792,327.982269 779.066406,323.701233 769.722290,316.679260 
	C760.132935,309.472931 753.169128,300.996033 750.655151,289.511688 
	C748.932739,281.642914 747.430176,273.254333 748.336853,265.387146 
	C749.876038,252.031723 755.380066,240.127823 766.798340,231.643784 
	C782.054382,220.308151 799.175903,218.193268 817.237793,221.047714 
	C823.744385,222.075989 830.684265,223.240433 836.292419,226.372879 
	C843.898438,230.621155 851.428833,235.570969 856.004883,243.754150 
	C860.926636,252.555664 861.093323,252.333893 852.484802,257.866364 
	C846.190186,261.911804 840.146423,266.347687 833.848022,270.386810 
	C832.156250,271.471680 829.942383,271.742401 828.211914,272.307373 
	C823.564087,263.963928 818.518127,257.631805 808.469116,256.736816 
	C802.361938,256.192871 797.024841,256.423309 792.475098,260.796906 
	C786.705444,266.343140 786.098145,274.818970 792.010986,280.205170 
	C796.630432,284.413025 802.118042,287.906372 807.711548,290.750092 
	C815.997864,294.962738 824.966370,297.847687 833.194214,302.157440 
	C843.917908,307.774567 854.482178,313.978363 861.843811,323.990875 
	C866.288513,330.036163 869.777344,336.637817 870.074097,344.543091 
	C870.247803,349.170044 872.045471,353.869019 871.539124,358.358124 
	C870.728699,365.543854 868.610718,372.582123 867.007812,380.076538 
z"/>
<path fill="#2296F3" opacity="1.000000" stroke="none" 
	d="
M177.037262,338.107452 
	C172.096817,341.075470 167.413330,344.648071 162.160278,346.880524 
	C152.452209,351.006195 142.198502,352.935547 131.662613,354.486908 
	C124.539474,355.535828 117.436951,356.506134 110.528679,355.800568 
	C91.782585,353.886017 73.499985,349.860474 58.723007,336.911194 
	C50.564991,329.762207 42.811016,321.926788 38.328957,311.995117 
	C34.208527,302.864746 30.789345,293.207581 31.016867,282.859253 
	C31.246367,272.421082 30.620754,261.806427 32.362926,251.609619 
	C33.725632,243.633835 37.443638,235.796967 41.408592,228.612198 
	C44.610504,222.810120 49.338604,217.658783 54.134541,212.982758 
	C58.750122,208.482635 63.885578,204.096313 69.582626,201.230453 
	C76.782059,197.608856 84.620384,194.905762 92.474861,193.024643 
	C102.893402,190.529510 113.590134,189.944412 124.314255,191.890671 
	C128.342255,192.621674 132.662384,192.060257 136.559418,193.137192 
	C148.955048,196.562668 160.858261,201.212265 169.539703,211.332733 
	C170.443909,212.386841 170.332565,215.716125 169.366837,216.742325 
	C163.106964,223.394272 156.561493,229.788254 149.877426,236.017609 
	C148.956223,236.876144 146.339264,237.041519 145.207642,236.361832 
	C138.712234,232.460678 132.879074,226.951080 125.934265,224.458847 
	C120.033501,222.341278 112.894241,222.992020 106.371849,223.434113 
	C93.450455,224.309937 83.517464,231.538742 76.005104,241.273117 
	C72.014954,246.443481 70.221405,253.475418 68.142975,259.895813 
	C66.777199,264.114777 65.876595,268.790314 66.141357,273.178497 
	C67.316292,292.652039 74.595543,308.945709 92.558540,318.629272 
	C96.251427,320.620056 100.808052,321.137115 105.038361,321.967804 
	C109.622482,322.867981 114.271881,323.580688 118.926453,323.943085 
	C125.876953,324.484192 132.436035,322.649567 138.888336,320.147064 
	C141.267960,319.224182 143.977798,319.152679 146.743301,318.655762 
	C146.743301,311.576385 146.743301,304.453705 146.178223,296.759064 
	C144.066177,295.792755 142.531143,295.126343 140.969940,295.057983 
	C137.154694,294.890961 133.325272,295.079987 129.505325,294.980621 
	C123.394951,294.821625 117.287628,294.545135 111.179016,294.318298 
	C110.786385,288.111450 110.113068,281.904388 110.117775,275.697845 
	C110.120186,272.523987 111.337044,269.351044 112.005005,266.177704 
	C112.449768,266.130249 112.894531,266.082794 113.867523,266.429260 
	C116.277260,267.215546 118.157013,267.938690 120.040504,267.948547 
	C136.827667,268.036438 153.615524,267.987823 170.403137,268.002594 
	C176.917587,268.008331 176.989700,268.090240 176.996597,274.780060 
	C177.018356,295.889191 177.024857,316.998322 177.037262,338.107452 
z"/>
<path fill="#2296F2" opacity="1.000000" stroke="none" 
	d="
M232.039001,336.122986 
	C229.983261,341.559875 228.007462,347.029846 225.784134,352.397308 
	C225.457001,353.187042 223.960693,353.939148 222.996964,353.949768 
	C212.867386,354.061554 202.736115,354.018860 190.999527,354.018860 
	C192.934570,348.289551 194.313690,343.302063 196.298203,338.568359 
	C198.575974,333.135101 201.576797,328.007874 203.926880,322.601410 
	C207.297943,314.846130 210.352982,306.953735 213.564468,299.128723 
	C216.028122,293.125824 218.430405,287.095123 221.031616,281.151917 
	C224.165970,273.990601 227.577026,266.950165 230.693832,259.781525 
	C234.224319,251.661438 237.374756,243.372299 241.042542,235.317001 
	C243.900391,229.040497 247.542023,223.120071 250.381943,216.836487 
	C252.923492,211.213104 254.803040,205.293045 257.061646,199.538025 
	C257.965668,197.234543 258.793640,194.801178 260.210114,192.823685 
	C262.059143,190.242325 267.290558,192.884216 269.042145,196.759216 
	C275.237396,210.464966 281.675262,224.061020 287.878326,237.763306 
	C290.136475,242.751450 291.802155,248.008392 294.072876,252.990112 
	C299.582245,265.077118 305.388977,277.028748 310.881714,289.123108 
	C314.970215,298.125427 318.729614,307.276733 322.680878,316.341980 
	C327.492554,327.381195 332.332825,338.408203 337.232544,349.408478 
	C337.561646,350.147400 338.495087,350.617157 340.174835,352.149017 
	C337.437012,352.941650 335.628876,353.888397 333.803894,353.921936 
	C324.814301,354.087250 315.804047,353.698883 306.835358,354.165314 
	C303.003113,354.364563 301.415405,352.323669 300.099274,349.797424 
	C297.890167,345.557037 296.111725,341.092224 294.127167,336.112671 
	C292.896973,335.004974 291.693939,334.078369 290.486115,334.072052 
	C272.523315,333.978210 254.559448,333.955017 236.597290,334.097107 
	C235.072617,334.109192 233.558182,335.417084 232.039001,336.122986 
M275.018127,290.530090 
	C271.115570,280.358490 267.213013,270.186920 263.089081,259.438263 
	C257.093109,274.860718 251.360199,289.606506 245.447845,304.813873 
	C257.672821,304.813873 269.074158,304.813873 281.103760,304.813873 
	C279.044373,300.131500 277.108337,295.729584 275.018127,290.530090 
z"/>
<path fill="#2296F3" opacity="1.000000" stroke="none" 
	d="
M637.974426,353.803528 
	C629.352844,354.216461 627.204712,352.633240 623.979309,343.664490 
	C623.135437,341.317963 622.103760,339.038910 621.131348,336.116516 
	C619.571167,335.002472 618.040405,334.073242 616.504395,334.064453 
	C598.732544,333.962555 580.960022,333.988464 563.187683,334.021118 
	C561.714172,334.023834 560.220154,334.237335 558.794983,334.591919 
	C558.618774,334.635773 558.811340,336.162140 558.833008,337.001495 
	C556.977478,341.794189 555.351807,346.698059 553.121399,351.309448 
	C552.482239,352.630920 550.111450,353.814758 548.505310,353.853790 
	C538.869995,354.088074 529.226135,353.969971 517.939453,353.969971 
	C519.996887,348.277130 521.687744,343.227844 523.643250,338.283264 
	C525.984741,332.362610 528.484863,326.501801 531.038879,320.668793 
	C534.200806,313.447662 537.442810,306.260590 540.739136,299.099701 
	C542.742188,294.748291 545.085510,290.548065 546.972168,286.149658 
	C550.747070,277.349091 554.272827,268.442108 557.977600,259.610992 
	C561.280334,251.738205 564.572388,243.857391 568.080872,236.075592 
	C570.991577,229.619736 574.370667,223.373993 577.244446,216.902878 
	C579.742920,211.276840 582.206726,205.581360 583.986084,199.704681 
	C585.877441,193.458344 587.242737,191.902344 592.862061,192.107117 
	C595.392090,196.861954 597.948914,201.428406 600.267456,206.112869 
	C601.681213,208.969299 602.675415,212.030243 603.948608,214.959961 
	C608.942444,226.450607 613.887573,237.963531 619.011353,249.396240 
	C624.580627,261.822906 630.355408,274.157288 635.990051,286.554871 
	C640.709656,296.939270 645.396240,307.339142 650.017700,317.767517 
	C652.113708,322.497192 654.016785,327.312347 655.896362,332.811523 
	C653.217834,334.965454 650.742310,336.605560 648.064087,337.785431 
	C642.026428,340.445251 636.945190,348.318634 637.974426,353.803528 
M608.406799,302.782715 
	C607.896973,301.868866 607.387146,300.955017 606.400818,300.002106 
	C606.400818,300.002106 605.933655,299.900879 605.699463,299.599365 
	C605.526001,299.410217 605.326599,299.254181 605.011414,298.313599 
	C600.105652,285.536438 595.199890,272.759308 590.219421,259.787476 
	C584.377380,274.190063 578.719543,288.138611 572.409546,302.260590 
	C571.335754,303.287567 570.262024,304.314545 569.188293,305.341522 
	C569.356567,305.820099 569.524841,306.298706 569.693176,306.777283 
	C582.772949,306.777283 595.852844,306.790192 608.932312,306.728760 
	C609.439148,306.726379 609.942505,306.010681 610.447510,305.627380 
	C609.788635,305.022278 609.129822,304.417145 608.215820,303.729370 
	C608.215820,303.729370 608.156860,303.467712 608.406799,302.782715 
z"/>
<path fill="#26D366" opacity="1.000000" stroke="none" 
	d="
M717.774048,364.984589 
	C715.834717,371.993744 715.082886,379.670776 711.622009,385.824219 
	C708.160767,391.978455 702.507202,397.269135 696.845520,401.700134 
	C692.271423,405.280090 686.495422,408.186432 680.833557,409.346252 
	C666.313843,412.320618 651.154602,413.075745 637.127502,408.584808 
	C623.088379,404.090027 611.288147,395.056427 604.266174,381.151855 
	C601.246216,375.171814 601.176758,375.407257 607.286682,371.859192 
	C612.044983,369.095947 616.480347,365.781982 621.178284,362.907349 
	C624.613708,360.805237 628.125977,358.718872 631.854553,357.270599 
	C633.012390,356.820831 635.371338,358.102356 636.522949,359.250610 
	C640.105957,362.823151 643.367310,366.717651 646.765503,370.476379 
	C650.604919,374.723175 661.248596,375.626007 666.249939,373.929993 
	C678.014648,369.940308 677.706604,359.946472 677.799805,351.016846 
	C678.222290,310.548218 677.988464,270.072754 677.990784,229.599747 
	C677.990906,227.625275 677.990784,225.650787 677.990784,223.032639 
	C690.569153,223.032639 702.824585,223.032639 715.543213,223.560028 
	C716.006042,266.637360 715.953735,309.187469 716.082458,351.737030 
	C716.095825,356.154541 717.184448,360.568817 717.774048,364.984589 
z"/>
<path fill="#2296F3" opacity="1.000000" stroke="none" 
	d="
M642.937805,354.857178 
	C642.962769,354.450989 642.987671,354.044739 643.425781,353.288330 
	C645.950867,350.688416 647.929016,348.290070 650.214294,346.232910 
	C652.301331,344.354156 654.720947,342.844879 656.993958,341.172791 
	C657.441772,341.123596 657.889526,341.074402 658.768555,341.418030 
	C660.469788,342.535431 661.739807,343.260010 663.294434,344.164368 
	C664.327637,345.000031 665.087585,345.643585 665.823059,346.313965 
	C670.138062,350.247192 670.912170,355.082825 669.219116,360.420410 
	C667.553345,365.672119 663.283813,368.170410 658.336853,368.662567 
	C652.564697,369.236755 648.838684,365.775543 646.518860,360.584747 
	C645.608948,358.548767 644.147888,356.759064 642.937805,354.857178 
z"/>
<path fill="#33CE70" opacity="1.000000" stroke="none" 
	d="
M717.852234,364.521851 
	C717.184448,360.568817 716.095825,356.154541 716.082458,351.737030 
	C715.953735,309.187469 716.006042,266.637360 716.007935,223.629822 
	C716.642212,223.492584 717.654602,223.678604 717.825928,224.162430 
	C718.143188,225.058517 717.995605,226.128799 717.995178,227.126511 
	C717.976746,272.770721 717.953247,318.414917 717.852234,364.521851 
z"/>
<path fill="#2F9AF0" opacity="1.000000" stroke="none" 
	d="
M177.402817,337.918091 
	C177.024857,316.998322 177.018356,295.889191 176.996597,274.780060 
	C176.989700,268.090240 176.917587,268.008331 170.403137,268.002594 
	C153.615524,267.987823 136.827667,268.036438 120.040504,267.948547 
	C118.157013,267.938690 116.277260,267.215546 114.197388,266.499969 
	C135.407684,266.176758 156.816376,266.176758 178.620346,266.176758 
	C178.745682,267.416473 178.981491,268.670319 178.983002,269.924438 
	C179.008575,291.013885 179.030334,312.103485 178.954361,333.192688 
	C178.948898,334.706116 178.181503,336.216766 177.402817,337.918091 
z"/>
<path fill="#33A5E6" opacity="1.000000" stroke="none" 
	d="
M642.596375,355.062317 
	C644.147888,356.759064 645.608948,358.548767 646.518860,360.584747 
	C648.838684,365.775543 652.564697,369.236755 658.336853,368.662567 
	C663.283813,368.170410 667.553345,365.672119 669.219116,360.420410 
	C670.912170,355.082825 670.138062,350.247192 665.823059,346.313965 
	C665.087585,345.643585 664.327637,345.000031 663.290344,343.814362 
	C662.984924,342.583801 662.968201,341.883026 662.951477,341.182220 
	C670.885559,344.127655 675.964966,352.779266 673.988525,359.981079 
	C671.889099,367.630829 663.612183,372.164825 653.968628,370.945831 
	C648.846619,370.298431 641.687744,364.396423 642.596375,355.062317 
z"/>
<path fill="#359EF5" opacity="1.000000" stroke="none" 
	d="
M656.589111,341.103577 
	C654.720947,342.844879 652.301331,344.354156 650.214294,346.232910 
	C647.929016,348.290070 645.950867,350.688416 643.500732,352.992004 
	C643.033752,351.821075 642.905029,350.596252 642.752808,349.148071 
	C641.249084,350.861542 639.970947,352.317902 638.333618,353.788910 
	C636.945190,348.318634 642.026428,340.445251 648.064087,337.785431 
	C650.742310,336.605560 653.217834,334.965454 655.912476,333.210541 
	C656.958984,334.563171 657.878479,336.239532 658.998047,338.280701 
	C655.668823,338.950348 653.461975,339.394226 651.255127,339.838135 
	C651.301758,340.236877 651.348450,340.635651 651.395081,341.034424 
	C652.991455,341.034424 654.587830,341.034424 656.589111,341.103577 
z"/>
<path fill="#2F9AF0" opacity="1.000000" stroke="none" 
	d="
M111.594864,266.107300 
	C111.337044,269.351044 110.120186,272.523987 110.117775,275.697845 
	C110.113068,281.904388 110.786385,288.111450 111.179016,294.318298 
	C117.287628,294.545135 123.394951,294.821625 129.505325,294.980621 
	C133.325272,295.079987 137.154694,294.890961 140.969940,295.057983 
	C142.531143,295.126343 144.066177,295.792755 145.809937,296.512787 
	C133.542175,296.838470 121.077614,296.838470 108.057793,296.838470 
	C108.057793,287.465668 107.963318,278.200775 108.194878,268.944000 
	C108.219719,267.950653 110.142410,267.004791 111.594864,266.107300 
z"/>
<path fill="#359EF5" opacity="1.000000" stroke="none" 
	d="
M559.074585,336.628387 
	C558.811340,336.162140 558.618774,334.635773 558.794983,334.591919 
	C560.220154,334.237335 561.714172,334.023834 563.187683,334.021118 
	C580.960022,333.988464 598.732544,333.962555 616.504395,334.064453 
	C618.040405,334.073242 619.571167,335.002472 620.980103,335.775513 
	C600.342590,336.116364 579.829468,336.185822 559.074585,336.628387 
z"/>
<path fill="#359EF5" opacity="1.000000" stroke="none" 
	d="
M232.502625,336.069702 
	C233.558182,335.417084 235.072617,334.109192 236.597290,334.097107 
	C254.559448,333.955017 272.523315,333.978210 290.486115,334.072052 
	C291.693939,334.078369 292.896973,335.004974 293.978882,335.774414 
	C273.559113,336.035675 253.262680,336.026062 232.502625,336.069702 
z"/>
<path fill="#359EF5" opacity="1.000000" stroke="none" 
	d="
M662.561890,341.107300 
	C662.968201,341.883026 662.984924,342.583801 663.005737,343.634583 
	C661.739807,343.260010 660.469788,342.535431 659.100586,341.492004 
	C660.058289,341.126251 661.115295,341.079315 662.561890,341.107300 
z"/>
<path fill="#000000" opacity="1.000000" stroke="none" 
	d="
M275.095215,290.928894 
	C277.108337,295.729584 279.044373,300.131500 281.103760,304.813873 
	C269.074158,304.813873 257.672821,304.813873 245.447845,304.813873 
	C251.360199,289.606506 257.093109,274.860718 263.089081,259.438263 
	C267.213013,270.186920 271.115570,280.358490 275.095215,290.928894 
z"/>
<path fill="#000000" opacity="1.000000" stroke="none" 
	d="
M605.933655,299.900879 
	C605.933655,299.900879 606.400818,300.002106 606.691895,300.344238 
	C607.374329,301.613464 607.765625,302.540588 608.156860,303.467712 
	C608.156860,303.467712 608.215820,303.729370 608.496216,304.060608 
	C608.526672,304.575623 608.277161,304.919281 608.026611,304.920074 
	C596.871399,304.955536 585.715515,304.998993 574.562439,304.847321 
	C574.049805,304.840332 573.561401,303.048004 573.061707,302.087189 
	C578.719543,288.138611 584.377380,274.190063 590.219421,259.787476 
	C595.199890,272.759308 600.105652,285.536438 605.036255,298.973022 
	C605.351929,299.721954 605.642822,299.811401 605.933655,299.900879 
z"/>
<path fill="#2F9AF0" opacity="1.000000" stroke="none" 
	d="
M572.735596,302.173889 
	C573.561401,303.048004 574.049805,304.840332 574.562439,304.847321 
	C585.715515,304.998993 596.871399,304.955536 608.026611,304.920074 
	C608.277161,304.919281 608.526672,304.575623 608.623779,304.101959 
	C609.129822,304.417145 609.788635,305.022278 610.447510,305.627380 
	C609.942505,306.010681 609.439148,306.726379 608.932312,306.728760 
	C595.852844,306.790192 582.772949,306.777283 569.693176,306.777283 
	C569.524841,306.298706 569.356567,305.820099 569.188293,305.341522 
	C570.262024,304.314545 571.335754,303.287567 572.735596,302.173889 
z"/>
<path fill="#2F9AF0" opacity="1.000000" stroke="none" 
	d="
M608.281860,303.125214 
	C607.765625,302.540588 607.374329,301.613464 606.930176,300.363770 
	C607.387146,300.955017 607.896973,301.868866 608.281860,303.125214 
z"/>
<path fill="#2F9AF0" opacity="1.000000" stroke="none" 
	d="
M605.816528,299.750122 
	C605.642822,299.811401 605.351929,299.721954 605.081177,299.381897 
	C605.326599,299.254181 605.526001,299.410217 605.816528,299.750122 
z"/>
</svg>