<?xml version="1.0" encoding="utf-8" ?><svg xmlns="http://www.w3.org/2000/svg" xmlns:xlink="http://www.w3.org/1999/xlink" width="900" height="600" viewBox="0 0 900 600"><path fill="#2096F3" d="M387.4 285.093C389.807 277.584 391.515 269.773 394.382 262.426C396.173 257.838 398.411 253.502 400.434 249.022C405.316 238.208 410.342 227.571 415.503 216.893C418.811 210.048 421.577 202.692 425.31 196.093C426.249 194.432 427.504 192.347 429.115 191.282C429.46 191.055 429.67 191.223 430.052 191.31C431.354 192.536 432.375 194.038 433.24 195.595C438.559 205.164 442.845 215.653 447.573 225.546C453.371 237.679 459.864 249.851 464.909 262.293C467.906 269.686 469.985 277.605 472.321 285.231C474.496 266.407 486.018 239.436 492.431 221.171C494.684 214.754 499.197 198.97 502.781 193.821C506.359 191.95 528.674 193.053 534.572 193.124C533.747 197.603 531.852 202.062 530.34 206.355C527.763 213.766 525.108 221.149 522.375 228.504C516.704 243.713 511.349 259.071 505.89 274.36L486.906 326.995C484.711 333.161 480.542 347.808 477.514 352.351C476.28 352.692 475.451 352.787 474.189 352.544C472.2 351.113 441.256 284.493 437.712 276.154C434.798 269.297 432.6 262.282 430.047 255.298L429.631 253.992L429.194 253.961C428.817 255.134 428.48 256.303 428.184 257.499C425.139 267.985 420.303 277.659 415.645 287.474C409.564 300.235 403.409 312.96 397.18 325.648C394.085 332.059 387.928 346.707 384.11 351.895C383.48 352.752 382.539 352.644 381.54 352.813C379.87 352.227 378.92 349.763 378.228 348.216C375.263 341.583 373.056 334.396 370.583 327.55L357.972 292.689C349.117 267.742 339.648 242.981 330.562 218.113C328.131 211.46 324.964 199.311 321.714 193.71C321.637 193.576 321.556 193.444 321.477 193.312C327.939 192.838 350.825 192.093 356.103 193.548C358.669 195.986 380.389 258.409 382.864 266.409C384.781 272.602 386.578 278.649 387.4 285.093Z"/><path fill="#23D466" d="M801.025 220.407C814.984 219.547 830.733 222.562 841.913 231.355C846.33 234.83 856.749 245.205 857.364 250.43C857.261 250.775 857.253 251.164 857.054 251.463C855.92 253.165 832.084 267.863 828.57 269.816C827.033 268.141 825.845 266.105 824.489 264.278C820.288 258.615 815.486 255.026 808.37 254.023C802.778 253.234 796.603 254.058 792.039 257.598C788.763 260.178 786.658 263.964 786.196 268.108C785.582 273.497 787.508 278.865 791.408 282.634C796.412 287.38 803.234 289.95 809.464 292.655C827.527 300.497 847.252 307.919 859.595 324.143C868.602 335.981 870.868 351.304 868.886 365.768C867.182 378.205 860.122 389.419 850.114 396.9C832.995 409.696 809.696 411.262 789.234 408.179C786.507 407.659 783.798 407.053 781.11 406.361C760.087 400.836 747.219 388.736 736.492 370.352C747.109 364.965 757.503 358.581 767.736 352.483C771.324 357.041 774.267 361.832 778.6 365.79C786.387 372.904 796.99 376.106 807.437 375.551C814.124 375.196 821.557 373.32 826.132 368.102C829.253 364.542 831.278 359.92 830.86 355.127C830.428 350.193 827.572 346.036 823.838 342.944C818.574 338.582 811.955 335.973 805.752 333.268C792.391 327.44 778.001 322.074 766.799 312.486C755.958 303.208 749.512 291.301 748.42 276.998C747.229 261.41 750.606 248.402 761.004 236.456C770.682 225.338 786.996 221.442 801.025 220.407Z"/><path fill="#2096F3" d="M101.601 191.374C120.768 190.584 140.922 191.683 157.207 202.972C160.168 205.025 167.214 209.879 167.842 213.324C165.348 218.451 151.302 230.807 146.527 235.158C140.15 230.287 135.645 225.665 127.668 223.098C115.102 219.054 100.038 220.46 88.4117 226.582C77.0519 232.564 70.3912 243.042 66.7633 255.043C62.5684 268.919 63.6456 286.178 70.5592 298.994C77.4915 311.844 87.6103 318.302 101.367 322.3C112.777 325.616 136.192 324.048 146.599 318.337C146.569 310.696 146.614 303.055 146.737 295.414L108.993 295.478C109.099 285.809 108.867 276.143 109.14 266.474C113.263 266.617 117.441 266.433 121.568 266.382C140.035 266.409 158.872 267.228 177.294 266.237C178.131 276.841 177.433 287.971 177.421 298.646C177.409 309.3 178.019 320.264 177.404 330.878C177.319 332.349 177.289 334.46 176.337 335.66C170.688 342.78 145.856 350.131 136.712 351.653C110.82 355.962 83.1915 352.614 61.4651 337.046C44.7601 325.076 34.3445 306.556 31.1053 286.428C27.7121 265.343 31.9736 240.034 44.6918 222.548C48.7577 216.957 53.478 212.551 58.9258 208.335C72.584 197.765 84.8073 194 101.601 191.374Z"/><path fill="#2096F3" d="M261.714 191.059C262.81 191.344 263.491 191.398 264.21 192.363C267.575 196.88 274.794 215.503 277.805 222.04L324.665 325.218C326.238 328.665 335.988 348.474 335.567 350.934C331.269 352.319 306.936 351.838 301.537 351.191C298.935 346.697 297.353 337.744 294.231 334.552C292.431 332.711 269.514 333.576 265.554 333.592L230.561 333.657C227.926 339.42 225.882 345.498 223.374 351.33C214.342 352.217 200.18 351.617 190.813 351.33C192.764 347.777 194.099 343.818 195.762 340.112C200.891 328.678 205.736 317.095 210.691 305.581L246.147 224.687C249.634 216.65 256.571 196.644 261.714 191.059ZM241.863 306.021C255.381 306.461 269.304 306.537 282.813 305.923C276.015 293.383 267.147 270.866 264.009 257.049L261.832 250.559L260.631 255.728C257.899 266.313 254.324 276.419 250.034 286.467C247.298 292.872 243.858 299.356 241.863 306.021Z"/><path fill="#2096F3" fill-opacity="0.015686275" d="M260.631 255.728L261.832 250.559L264.009 257.049C263.01 257.499 262.191 258.127 261.109 257.83L260.631 255.728Z"/><path fill="#2096F3" d="M588.854 190.949C589.252 191.057 589.642 191.177 590.012 191.364C590.981 191.854 591.581 192.821 592.049 193.766C597.392 204.558 602.094 215.775 607.03 226.766L630.101 277.618L646.702 314.231C649.942 321.359 653.625 328.489 656.2 335.875C649.297 337.388 644.209 339.525 640.584 345.949C639.753 347.421 638.96 349.718 637.793 350.895C636.83 351.866 633.976 352.041 632.61 351.984C623.667 351.61 626.098 339.542 621.653 334.732C618.097 332.498 589.668 333.58 583.771 333.595L557.591 333.656C556.072 336.967 552.618 349.118 549.884 350.826C547.524 352.301 522.439 351.48 517.974 351.327C519.6 348.612 520.544 345.535 521.788 342.635C524.883 335.416 527.748 328.108 530.966 320.944L573.343 224.413C576.637 216.787 583.855 196.504 588.854 190.949ZM568.901 306.052C581.393 306.523 597.235 306.656 609.691 305.909C602.598 290.418 594.578 273.718 590.994 257.035C590.442 255.255 589.981 252.884 588.816 251.431C588.212 252.284 588.206 253.243 588.092 254.25C585.442 263.842 582.572 273.219 578.747 282.425C575.529 290.169 571.319 298.054 568.901 306.052Z"/><path fill="#2096F3" fill-opacity="0.023529412" d="M588.092 254.25C588.206 253.243 588.212 252.284 588.816 251.431C589.981 252.884 590.442 255.255 590.994 257.035C590.099 257.425 589.091 258.14 588.173 257.788C588.282 256.67 588.292 255.687 588.138 254.571L588.092 254.25Z"/><path fill="#23D466" d="M677.884 222.387C690.791 222.458 703.699 222.444 716.606 222.346C716.198 253.761 716.525 285.213 716.531 316.633C716.534 330.82 717.465 348.438 716.037 362.275C715.421 368.329 713.907 374.258 711.546 379.867C706.537 391.589 697.568 400.389 685.742 405.075C667.2 412.423 645.794 410.401 627.818 402.624C616.172 397.441 608.128 385.799 602.209 375.086C606.096 371.602 610.452 369.533 614.872 366.871C620.983 363.19 627.007 359.426 633.219 355.912C636.746 359.84 638.732 364.867 642.485 368.712C646.535 372.862 651.756 375.247 657.575 375.311C662.531 375.365 668.533 374.105 672.18 370.507C675.787 366.949 676.832 362.155 677.434 357.273C678.075 352.079 677.802 346.559 677.826 341.325L677.881 313.504L677.884 222.387Z"/><path fill="#2096F3" d="M653.123 341.701C660.523 339.57 668.246 343.856 670.354 351.265C672.461 358.673 668.151 366.385 660.738 368.469C653.358 370.544 645.69 366.257 643.592 358.881C641.494 351.506 645.756 343.823 653.123 341.701Z"/><path fill="#2096F3" fill-opacity="0.015686275" d="M428.184 257.499C428.48 256.303 428.817 255.134 429.194 253.961L429.631 253.992L430.047 255.298C429.994 256.274 429.91 257.183 429.71 258.14L429.056 258.271L428.184 257.499Z"/></svg>